<svg width="40" height="43" viewBox="0 0 40 43" fill="none" xmlns="http://www.w3.org/2000/svg">
<g clip-path="url(#clip0_2736_9048)">
<path d="M21.093 42.546C11.21 42.546 3.53242 37.9031 1.05558 30.4293L0.5 28.7573L2.12438 27.9975C2.29614 27.9156 6.55745 25.8227 6.29238 21.7075C6.01246 17.3632 2.40745 15.3242 2.25371 15.2402L0.669651 14.3654L1.35353 12.7141C4.59483 5.06409 11.9755 0.5 21.094 0.5C28.2605 0.5 34.5417 3.23762 38.3227 8.01006L39.277 9.21665L31.7425 19.1254L30.0609 17.5384C30.028 17.5083 26.4464 14.2037 22.289 14.185C18.2832 14.1663 16.7044 15.6393 16.6387 15.7026L13.6709 12.9204C13.9424 12.6374 16.486 10.1257 22.307 10.1682C26.0159 10.1848 29.2201 11.9149 31.1106 13.2241L34.0656 9.33793C31.0014 6.25927 26.3637 4.51884 21.0951 4.51884C14.2912 4.51884 8.70346 7.59646 5.84067 12.8291C7.57107 14.2462 10.1105 17.0522 10.3968 21.4546C10.7032 26.2125 7.58487 29.2041 5.55654 30.6325C7.95704 35.5387 13.7494 38.524 21.0962 38.524C26.1845 38.524 31.3926 36.5908 34.6085 33.6023L31.2484 29.4923C29.4597 30.7289 26.4029 32.3356 22.4056 32.5388C16.7299 32.8238 13.3741 30.2749 13.2341 30.166L15.7862 27.0169C15.8647 27.0729 18.1443 28.7335 22.1914 28.5251C26.9818 28.2846 30.0545 25.2816 30.0832 25.2495L31.7086 23.6335L33.1623 25.3967L39.9534 33.7091L38.9122 34.9644C35.092 39.5699 28.1004 42.546 21.093 42.546Z" fill="url(#paint0_linear_2736_9048)"/>
</g>
<defs>
<linearGradient id="paint0_linear_2736_9048" x1="38.2431" y1="7.13518" x2="5.55151" y2="36.4098" gradientUnits="userSpaceOnUse">
<stop offset="0.0733" stop-color="#F46881"/>
<stop offset="0.083" stop-color="#F36682"/>
<stop offset="0.2596" stop-color="#E74596"/>
<stop offset="0.407" stop-color="#E031A2"/>
<stop offset="0.5065" stop-color="#DD2AA6"/>
<stop offset="0.8882" stop-color="#5210E2"/>
</linearGradient>
<clipPath id="clip0_2736_9048">
<rect width="39.2308" height="42.5" fill="white" transform="translate(0.5 0.5)"/>
</clipPath>
</defs>
</svg>
